<?xml version="1.0" standalone="no"?><!DOCTYPE svg PUBLIC "-//W3C//DTD SVG 1.1//EN" "http://www.w3.org/Graphics/SVG/1.1/DTD/svg11.dtd"><svg t="1730893141887" class="icon" viewBox="0 0 1024 1024" version="1.1" xmlns="http://www.w3.org/2000/svg" p-id="4654" xmlns:xlink="http://www.w3.org/1999/xlink" width="200" height="200"><path d="M1022.30016 769.11843555l-247.39157333 66.26304-29.85756445-111.38958222-5.59104-9.69386666c0.79758222-0.95004445 1.39832889-2.04913778 2.19591111-2.99918222L708.65351111 588.11733333l81.08487111 46.82296889c17.07349333-37.82883555 27.56039111-79.20526222 27.56039111-123.48074667 0-169.65518222-137.10222222-307.18065778-306.20899555-307.18065777a303.46581333 303.46581333 0 0 0-62.50837333 6.49671111l-53.17290667-92.05077334c36.74680889-10.84302222 75.49155555-16.89031111 115.68241777-16.8903111 225.77379555 0 408.76032 183.39953778 408.76032 409.57496888 0 62.96803555-14.62840889 122.28494222-39.99288888 175.50563556l142.44181333 82.20330666zM204.93084445 511.45955555c0 169.65518222 137.10222222 307.18065778 306.15779555 307.18065778 16.82659555 0 33.05358222-2.34837333 49.18044445-4.94705778l54.07061333 93.64821334c-33.00238222 8.59477333-67.50208 13.69201778-103.25105778 13.69201778-225.72487111 0-408.70912-183.3984-408.70912-409.62503112 0-48.12231111 9.73596445-93.64821333 24.96398222-136.57315555L0.57571555 340.90325333 222.35591111 212.87367111l128.11605334 221.72899556-124.02119112-33.18328889c-13.48152889 34.13333333-21.51992889 70.96092445-21.51992888 110.04017777z" p-id="4655"></path></svg>